<svg version="1.1" id="图层_1" xmlns="http://www.w3.org/2000/svg" x="0" y="0" viewBox="-352 176 50 50" xml:space="preserve"><style>@keyframes main-loading{0%{transform:rotate(0deg)}50%{transform:rotate(180deg)}99.99%{transform:rotate(360deg)}}</style><path d="M-304.1 202c-1 0-1.8.7-2 1.7-1.3 10.3-10.1 18.3-20.8 18.3-11.3 0-20.4-8.9-21-20v-1c0-11 8.4-20 19.2-20.9 1-.1 1.8-.9 1.8-2 0-1.2-1-2.1-2.2-2-12.8 1.1-22.8 11.8-22.8 24.9v1c.5 13.4 11.5 24 25 24 12.7 0 23.2-9.5 24.8-21.8.1-1.2-.8-2.2-2-2.2z" style="animation:main-loading 1s linear infinite;transform-origin:-327px 201px" fill="#bfecff"/></svg>